/* XPM */
static char *imgonline_com_ua_Resize_185D4QhBGhrxz2[] = {
/* columns rows colors chars-per-pixel */
"64 64 232 2 ",
"   c #161416",
".  c #181718",
"X  c #191719",
"o  c #1A181A",
"O  c #1A191A",
"+  c #1B191B",
"@  c #1B1A1B",
"#  c #1C1A1C",
"$  c #1C1B1C",
"%  c #1D1B1D",
"&  c #1D1C1D",
"*  c #1D1D1D",
"=  c #1E1C1E",
"-  c #1E1D1E",
";  c #1F1C1F",
":  c #1F1D1F",
">  c #1E1E1E",
",  c #1F1E1F",
"<  c gray12",
"1  c #201E20",
"2  c #201F20",
"3  c #211F21",
"4  c #202020",
"5  c #202120",
"6  c #212021",
"7  c gray13",
"8  c #212221",
"9  c #222022",
"0  c #222122",
"q  c #232123",
"w  c #222222",
"e  c #222322",
"r  c #232223",
"t  c #232323",
"y  c #232423",
"u  c #242224",
"i  c #242324",
"p  c #252325",
"a  c gray14",
"s  c #242524",
"d  c #252425",
"f  c #252525",
"g  c #242624",
"h  c #252625",
"j  c #252725",
"k  c #262426",
"l  c #262526",
"z  c #272527",
"x  c gray15",
"c  c #262726",
"v  c #272627",
"b  c #272727",
"n  c #262826",
"m  c #272827",
"M  c #272927",
"N  c #282728",
"B  c #282828",
"V  c #282928",
"C  c #292829",
"Z  c gray16",
"A  c #282A28",
"S  c #292A29",
"D  c #292B29",
"F  c #2A282A",
"G  c #2A292A",
"H  c #2A2A2A",
"J  c #2A2B2A",
"K  c #2B2A2B",
"L  c gray17",
"P  c #2A2C2A",
"I  c #2B2C2B",
"U  c #2B2D2B",
"Y  c #2C2B2C",
"T  c #2D2B2D",
"R  c #2C2C2C",
"E  c #2C2D2C",
"W  c #2D2C2D",
"Q  c #2D2D2D",
"!  c #2C2E2C",
"~  c #2D2E2D",
"^  c #2D2F2D",
"/  c #2E2C2E",
"(  c #2E2D2E",
")  c gray18",
"_  c #2E2F2E",
"`  c #2F2E2F",
"'  c #2F2F2F",
"]  c #2D302D",
"[  c #2E302E",
"{  c #2F302F",
"}  c #2F312F",
"|  c #302E30",
" . c #302F30",
".. c gray19",
"X. c #303130",
"o. c #313031",
"O. c #313131",
"+. c #303230",
"@. c #313231",
"#. c #313331",
"$. c #323032",
"%. c #323132",
"&. c #323232",
"*. c #323332",
"=. c #333233",
"-. c gray20",
";. c #323432",
":. c #333433",
">. c #333533",
",. c #343334",
"<. c #343434",
"1. c #343534",
"2. c #353435",
"3. c #353535",
"4. c #343634",
"5. c #353635",
"6. c #353735",
"7. c #363536",
"8. c gray21",
"9. c #363736",
"0. c #373637",
"q. c #373737",
"w. c #373837",
"e. c #383638",
"r. c #383738",
"t. c #393739",
"y. c gray22",
"u. c #383938",
"i. c #393839",
"p. c #393939",
"a. c #393A39",
"s. c #3A383A",
"d. c #3A393A",
"f. c #3B393B",
"g. c #3A3A3A",
"h. c #3A3B3A",
"j. c #3B3A3B",
"k. c gray23",
"l. c #3B3C3B",
"z. c #3C3A3C",
"x. c #3C3B3C",
"c. c #3D3B3D",
"v. c #3C3C3C",
"b. c #3C3D3C",
"n. c #3D3C3D",
"m. c gray24",
"M. c #3D3E3D",
"N. c #3E3C3E",
"B. c #3E3D3E",
"V. c #3F3D3F",
"C. c #3E3E3E",
"Z. c #3E3F3E",
"A. c #3F3E3F",
"S. c #3F3F3F",
"D. c #3F403F",
"F. c #403E40",
"G. c #403F40",
"H. c #413F41",
"J. c gray25",
"K. c #404140",
"L. c #414041",
"P. c #414141",
"I. c #414241",
"U. c #424042",
"Y. c #424142",
"T. c #434143",
"R. c gray26",
"E. c #424342",
"W. c #434243",
"Q. c #434343",
"!. c #434443",
"~. c #444244",
"^. c #444344",
"/. c #454345",
"(. c #444444",
"). c #454445",
"_. c gray27",
"`. c #454645",
"'. c #464446",
"]. c #464546",
"[. c #474547",
"{. c #464646",
"}. c #474647",
"|. c gray28",
" X c #474847",
".X c #484648",
"XX c #484748",
"oX c #494749",
"OX c #484848",
"+X c #484948",
"@X c #494849",
"#X c #494949",
"$X c #494A49",
"%X c #4A484A",
"&X c #4A494A",
"*X c gray29",
"=X c #4A4B4A",
"-X c #4B4A4B",
";X c #4B4B4B",
":X c #4B4C4B",
">X c #4C4A4C",
",X c #4C4B4C",
"<X c #4D4B4D",
"1X c #4C4C4C",
"2X c #4C4D4C",
"3X c #4D4C4D",
"4X c gray30",
"5X c #4E4D4E",
"6X c #4E4E4E",
"7X c #4E4F4E",
"8X c #4F4E4F",
"9X c gray31",
"0X c #4F504F",
"qX c #504F50",
"wX c #505050",
"eX c #505150",
"rX c #515051",
"tX c #515151",
"yX c #525152",
"uX c #535153",
"iX c gray32",
"pX c #535453",
"aX c #545554",
"sX c #555555",
"dX c #555655",
"fX c #565556",
"gX c #565656",
"hX c #575857",
"jX c #585858",
"kX c #595859",
"lX c #5A5A5A",
"zX c #5C5B5C",
/* pixels */
"2 - x f B <.&.:.3.,.&.H H ..3.q.q.g.p.<.{ @.&.Z b H c n U b m 7 a A a r m w r S A I @.[ @.:.} } _ I A f J I U & $ l L R ` B f B ",
"7 a X.q.k.G.<.8.f.n.d.3.q.p.n.m.}.^.V.i.1.*.p.y.5.p.{ w f t x 6 r V P J r 6 6 h S E @.O.-.O.L Q *.Z b c m _ ! , m q.p.q.i.*.E E ",
"S R ..A.g.! 8.V.y.w.q.5.y.k.n.L._.S.B.m.r.3.d.C.p.p.%.3 - , i 0 0 V P Z V 6 , r J H X.%.0._ d Z E i r 6 m ] I 0 &.y.y.k.m.3.J E ",
"X.~ r.L.' &.k.y.^ [ 3.q.1.y.Y.P.J.(.P.P.x.y.g.k.p.p.~ 2 t c t 0 , h A l S h r a a v *.5.[ ! S Z Z ( E L B Z b 6 *.y.3.x.J.3.P @.",
"{ 8.B.E Q j.9.D h X.i.j.:.0.x.v.q.v.m.J.j.j.n.y.w.n.X., J B w u 2 2 h Z B h Z r 6 0 ' W d p f B ) C H L f i i 9 O.d.k.C.h.y.<.7.",
"<.Y.m.w.P.v.{ x m X.i.j.y.d.g.J.S.M.J.|.S.J.B.y.9.B.w.4 t x c r x j t ! [ V A 0 - Z C % a d 3 a 2 # & r ' ` E x ,.d.[ X.8.7.W &.",
"L.w.3.m.B.8.<.3.{ ! @.q.q.8.x.Y.(.P.L.!.m.x.i.1.9.A.4.h a s r d b V x { } J b = 4 J a s h = - 2 & 8 h f b d H N &.' V P ..a 2 I ",
"Z.C.U.v.u.*.r.y.-.M I :.8.y.m.}. X$X XJ.g.8.:.+.&.n.j.x d h h f V D c J ! ~ L 2 V V i f , , w 4 6 s V % # s S x q._ J f , - m *.",
"L.Y.R.W.p.w.G.n.d...{ :.8.f.F._.].#XW.w.X.X.} U _ r.B.J S d i r f v N { :.2.&...G r 2 6 - A V c m J d % , e x b i.) D S S V E 3.",
"G.P.v.z.f.g.R.P.B.3.8.N.F.F.Y.J.u.9.9.<.~ _ I m ^ y.g.a 2 3 r 0 d b b R  .<.I I d 6 a m m E @.-.b b B a c D s x <.r._ V Z ,.z.B.",
"v.S.J.B.j.y.I._.R.j.s.F.V.G.G.P.q.5.1.@.1.3.' ^ 3.q.&.v 1 & 7 y U X.~ &.7.X.V r 6 a ^ } 1.:.&.O.V A P E b { [ L j.q.H B o.y.V.A.",
"g.j.J.J.i.5.k.Y.J.g.8.z.j.z.j.a.1.:.@.&.-.X.3.y.p.1.<.B r a S ..:.H a ! _ t = r 1 w V f { Z p i L *._ G d H { ~ @...l <.y.y.n.m.",
"Q.Q.J.W.v.5.p.k.w.1.3.d.y.d.p.q.+.X.@.{ U r.G.v.p.9.d.( J S 6.Z.&.v c Z 0 = B E m , # 6 b q a b X.O.) i 0 6 B O.{ l Y i.y.p.A.Q.",
"I.(.Q.C.b.w.1.d.p.9.p.a.:.1.p.w.! U @.[ X.n.n.p.j.z.G.' -.:.<.@.R 6 x H A v d Z [ b Q ! m q d N <.X.O.J l _ *.O...x o.G.d.3.n.I.",
"[ _ *._ I R I _ R J _ ! I J J U E { ..` O.&.X.2.2.p.G.j.N.k.8.-.8.O.^ ..{ X.E O.O.} 8.E ! ~ c m ) _ I Z m R } ~ L x ) -.^ V R Z ",
"@.O.{ Q w 6 x c x i w a p u w w a x l 7 r l ' f B X.<.p.).g.*.! H i f 2.N.%XyXuX&X,X-.X.z.<.E X.2.' f x b 7.L./.x.O.k.A.0.h t s ",
"! { _ f - 2 , y f c c t 0 i a t t l d i d f &.l ( i.-.:.q.q.y.8.3.0.p.V._.gXzXyX<X].| q.n.:.*.q.c.d.2.S h Q q.g.*.:.L.(.B.6 - s ",
"m m f % - & - s f x A I P V A h d h b b c P -.d m _ X.p.n.i.y.y.x.B.].+XiXkXgX).Q.).) -.r.r.0.x.N.p.i.^ I ,.F.j.r./.4X@XL.6 t P ",
"f 6 @ X - = 7 m t x ^ &.:.[ ^ V p r H b V ! ) x M 8.B.F.d.i.q.a.R.`.1XpXlXgX1XL.J.}.O.~ 8.9.g.L.j.i.d._ V -.T.^.k.A.{.)._.S I m ",
"6 % < 7 - > s A a m ^ ^ X.;.} J a 9 k a J L ,.~ A ) N.j.y.9.g.Q.-X2X7X9X5X1XY.g.C.K.[ [ 3.n.@XL.0.<.g.X.m y.<XtX*X;X`.].|.S V f ",
"f 7 4 @ o y n h x D P &...I I E 0 # 2 r B I 2.L d V 0.j.y.8.A.|.-X:X;X).W.S.p.i.j.y.[ @.n.&XrX(.j.8.g.d.Y 2.%X6XtXdXgX6X=XB V m ",
"t 1 +   * D U h x P ' ) H S I ~ a & w 6 3 d ) p c J ~ y.3.y.Q.OX$X^.Y.(.(.v.5.9.5.-.{ ..` &.<.O.` ' R N m 2.XXqXiXhXfXsX7Xd D J ",
"S h 5 4 h E ~ L ! ^ X._ ) ` ' E N B Z t b L r.L R ~  .3.<.q.C.R.(.J.m.w.8.:.} ^ I R E d R ! { _ <.y.Z 8 0 k.>X&XiXjXsXsX1Xi a a ",
"{ *.X.U *.g.8.3.-._ H N ) O.O.Z Q -.3.*.] { d.p.8.1.p.1.X.Q ) :.q.w.5._ _ U m V H O.' m 0.@.i.y.F.5.h 7 0 J.4XtXtX;X*XeX).b K Y ",
"1.1.1.1.u.w.y.q.1._ l N 8.i.r.3.&.3.p. .~ k./.].XX~.'.Y.v.Y.A.P./.H.F.j.i.+.^ @.7.i. .d 7.<.} *.q.^ t h e k.aX7X X2X,X#XQ.E 3.m.",
"*.@.@.<.y.y.1.X._ _ H R 3.:.g.V.p.8.X.Q z.XX@X}.XX[.&X9X3X&X&X).A.x.m.g.y.3.@.+.*.<.H B 1.3.3.<.X.D j s w Z.8X&X0XrX#X).V.l b 2.",
"_ O.J ' j.q.*.~ V C R R Z L O.q.f.d.z.G.}.oX].W.Y.W.{.-X|.E.{.J.P.j.d.w.y.8.5.9.[ ^ B Z p.1.r.-.D ! S l a C.eXwX1X{.Y.A.d.Z 8.p.",
"! ! H X.*.^ _ { I ' 3.3.,.-.8.1.r.d.r.G.].n.w.u.C.(.R.J.J.b.].C.C.n.n.n.y.d.5.@.[ { v K j.2. .J D H B J r v.4X5X#XQ.D.E.k.I d.I.",
"{ _ _ ~ I m m V l H -.q.q.g.w.1.*.1.-.x.m.w.q.q.A.R.m.k.x.y.w.w.g.R.!.S.v.d.@.E I ~ v V ' B f x x v S J t ) u.k.h.y.h.u.*.{ p.w.",
"{ ~ I Q E %.' b b J _ Q -.5.8.{ X.:.1.y.i.p.w.g.g.y.g.y.y.i.y.y.j.S.b.x.P.p.@.*.{ Z l $ O + = # $ % @ X X . X # = - t x x a d w ",
"m B @.:.1.:.*.E ! ^ ) ~ H _ -.&._ <.3.j.i.y.d.q.#.q.q.w.p.B.n.j.k.p.q.q.y.q.-.8...z B - & - 4 7 0 6 : % , 2 < 4 o + w f c a y $ ",
"x ( &.*.-.3.<.:.Z B Z J ^ I P [ X.R F 0.3.g.C.y.8.p.d.w.j.R.Y.z.9.d.i.p.9.y.r.*.Q ) Z 1 9 V U D x V f 0 0 r s A < = < w f w w 4 ",
"*.8.{ X.X.<._ O.Z S E ^ @.<.&.Q  .) G r.k.G.J.g.d.i.y.q.9.a.v.d.5.5.9.y.8.9.1._ l R G 0 w h c f h ! c a w m , B j w y t t s a A ",
"i.p.*.-.&.Q L Y z E X.[ } O._ <.i.o.@.j.d.p.8.y.1.;.>.<.q.y.y.z.9.q.y.g.g.:.~ ! R ,.N 2 s i 2 7 r 0 r h m B 2 4 0 h M P D j ~ b ",
"*.{ ! I B N L J I Q ~ @.E I [ 3.7.W +.8.3.8.i.5.X.P ! +.q.h.B.z.v.9.y.j.9.#.~ #.B.XX/ 2 t 6 , 4 < 7 t y V w % , r V D S ~ O.~ w ",
"I V ! Z C ' ' ~ &.3.2.[ E I E I [ I 3.q.Q 3.y.9.:.! ! 3.i.V.R.B.d.q.y.&.P @.3.y./.^.F % 7 r 2 w s M m c d 6 % 7 m I U @.9.&.V M ",
"S S { *.1.} ,.O.-.z.<.^ J _ Z I -.` i.q.O.i.y.9.*.^ ;.i.z.B.k.w.5.y.8.} P -.:.<.k.z.t - , 0 r s M V f f 0 2 0 i h P ^ @.R 0 r x ",
"{ *.O.-.:.<.x..._ i.i.<.^ @._ 7.i.7.i.y.w.9.;.} +.#.8.z.N.z.x.y.q.9.X.+._ *.y.j.8.:.f > r w 6 w g f 9 - r 0 w a s a l b 0 i x Z ",
"{ 0.@.~ E ( &.<.8.8.q.3._ X.R O.@.} 3.i.q.1.{ { *.3.5.q.c.P.E.n.x.5.*.{ y.d.p.G.8.-.w - s V j f n a 3 t r 0 y c c r r a B m c t ",
"P [ ~ &.....y.q.q.y.y.d.q.R Z @.r.E <.A.N.q.<.q.i.y.d.y.T.).^.L.n.i.w.+.=.H U X.7._ w - s M U ~ U c u 0 a V V j m n f a x h 7 V ",
"E @.{ i.q.7.q.@.x.V.G.j.@.E ' j.i.R N..Xn.f.c.V.x.V.F.H.[.W.S.M.h.9.+.E b J J D :.r.4 o 6 s M ! P V t < c c A c s n m c x 0 r r ",
"&.r.3.m.q.3.*.^ q.*.<.' } <.i.Y.j.$.V.A.x.d.T.^.B./.H.W.}.{.x.*.9.5.! U H B @.3.d.x.w > a s s d c h i 4 0 a 7 f d i d d f c b 4 ",
"@.c.x.g.:.:.X.<.=.) R d R i.i.1.8.&.i.B.&X[.oX^.Y.W.B.k.l.v.q.^ *.<.J V ) ~ @.r.y.<.0 < j V A S [ @.b 0 r a r m x a b B f b J h ",
"E ~ ( W R b ....v Z d d Z 2.&.' @.:.G.&X6X&Xk.9.p.1.8.&.@.@.X.) m ) ) c C N r K Z 7 $ * M D } :.1.~ v 3 0 m x E I m ! Q Z f I ~ ",
"f w a x x B R C l a i q f l z d l J Z W b 0 - & : - 0 a S I I x Z o.| T ( o.W F C Y 6 < x I :.7.:.Q B C V P ~ *.I J B x c v L J ",
"f ) y.8.r.x.q.2.&.{ E c c S [ -.@.~ I S e i t m B s y 2 S 8.0.-.f.G.x.A.L.y.m.(.Y.]. ., I } ! K J N L ~ D P I I m l 3 d u x { F ",
"0 @.1.3.f.d.3.X.E E ..L J Z { 2.o.<.q.@.b B b Z *.:.H w S &.x.V.p.y.>.5...q.J.R.S.J...* P ~ C l B N Z B Z I H p 3 1 0 s H L I t ",
"7 I [ @.p.q.5.:.I Z E ~ H C H Z E E ..C i l m a _ x.W a M ' i.g.q.5.~ x ) d.A.x.g.M.' w S I  .J N Z d v b v r : ; 1 6 t B l u 6 ",
"j P { *.y.@.! <.{ R G ) L ) N l Z l l 0 B ^ _ S @.3.B f I J O...X._ b U O.3.8.8.8.w.C m ' E ~ J b B x t c Z 6 2 , 6 t t f v q 0 ",
"A U :.9.*.[ I _ J B z K L E I Z B f m b I X.~ J { r./ 7 V h l q 3 6 - % & d f a t 6 : 0 6 q u i C B R J Q _ E D M m c b b b f x ",
"U *.9.*.~ <.<.R L &.~ Q C Z Z Z H J J _ { @.' <.1.j.Y , ..{ ..{ ..0.=.I X.q.w.y.:.i.r.<.X.8.t.e.0.r.r.8.i.r.*.+.5.5.*.U ..X.J d ",
"b X.:.-.^ [ X.I E _ _ ) L J S Z Z I S E ~ ' I { ..3.Z J q.1.^ _ @.w.9.+.q.B.d.p.m.a.@.1.w.<.*.i.A.T.H.A.j.y.{ _ 5.3._ P } *.} J ",
"x ! E Q _ { X.[ E N ~ J _ I S Q N G S N I ~ Q W Z &.[ <.q.*.@.i.q.8.q.@.q.v.(.E.M.5.9.u.k.j.8.p.S.G.G.Y.n.d.@.-.x.q.5.q.*.Q E ! ",
"f D R { ^ ~ E I E L S U _ ~ { <.-.0.) B I -.7.%.B ' 2.-.[ ^ :.q.8.@.I { <.u.v.1.[ 8.:.@.*.q.*.X.9.9.w.6.p.j.Y.~.'.H.H.d.@.&.<.X.",
"f S ~ 2.{ ! B J I S J B Z C L <.d.w._ E { ....U Q -._ c S [ X.;.) b D @.-.N.p.:.*.q.:.+._ U @.{ *.d.r.y.d.m.|.OX@XL.n.j.j.j.d.<.",
"d ~ I *.X.^ H E @.O.) Z E [ &.r.q.q.q.-.O._ _ J  .3.' Z J B J S f B @.#.p.L.p.y.q.3.q.#.} [ 1.q.0.n.g.q.5.k.!.].^.y.} k.'.N.z.d.",
"t ~ ..*.*.I { ,.8.) %.( G X.8.y.3.7.8.+.V I { L o.*.{ l 0 6 p l f ,.x.g.N.d.y.f.j.y.@.@.} X.*.+.<.q.p.5.*.8.z.p.O.S Z n.XX_.^.L.",
"h _ X.1.@.' r.q.<.e.' ( H E { 8.q.i.*.@.I G *.L 2.q.O.x f V ~ -.<.j.T..X^.P.B.i.g.j.3.<.y.z.q.3.r.i.j.j.q.p.w.! m P &.A.#X_.{.(.",
"V ~ E X.&.t.s.o.<.Y r u 9 N R E <.i.8.0.0.R Q ^ *.i.-.W _ :.y.c.d.N.B.W.(._.G.y.g.m.i.q.O.8.r.i.x.F.c.0.5.a.j._ _ @.-.A.!.D.Q.l.",
"m :.{ *.y.d.,.Z ) u q r a -.7.&.X.-.3.8.=.E %.<.@.H W R *...K C d f d l t B Z B x V c f 2 6 a d v l i w e m l 1 f N C C I f m P ",
"B 3.{ ~ [ R J J f 6 6 m S _ 1.:.-.@.O.( Z ) *.O.E Z H l f u r d , 6 f 0 w w m J J s s Z t a c x % X y b V b 0 t E _ { R m B J M ",
"V *.L H X.I r 0 # # = f x B ^ -...E [ J E O.<.) L R I b u d ^ Z i c f x m b M U X.V P V Z E b d 6 s [ >._ H I c m %.&.*...*.1.X.",
"X.q.Q L X.Z 1 = & 1 m a 0 B ~ &.@.H Z N l V -.K E Q I b d q f Z ! ~ h a B t s D ^ L B <.@.*.<...I U ! O.~ ! P V O.@.3.r.r.3.8.{ ",
"O.E B l E b x S E L P S L E R ' E v p l u p Z N R R T Z L v 0 d Z b b 3 B M f I [ I U { _ { X.V S c U H C B f D S x D ! ^ I I ! "
};
