/* XPM */
static char *imgonline_com_ua_Resize_DX5cux57ZR[] = {
/* columns rows colors chars-per-pixel */
"64 64 38 1 ",
"  c #161416",
". c #1D1C1D",
"X c #201F20",
"o c #252525",
"O c #272827",
"+ c #2B2C2B",
"@ c #2F302F",
"# c #343434",
"$ c #373837",
"% c #383738",
"& c #3C3C3C",
"* c #3F403F",
"= c #403F40",
"- c #444444",
"; c #474847",
": c #484748",
"> c #4B4B4B",
", c #4F504F",
"< c #504F50",
"1 c #535353",
"2 c #575857",
"3 c #585758",
"4 c #5B5A5B",
"5 c #5F605F",
"6 c #605F60",
"7 c #646364",
"8 c #676867",
"9 c #686768",
"0 c #6C6B6C",
"q c #6F706F",
"w c #737373",
"e c #777877",
"r c #7C7C7C",
"t c #7F807F",
"y c #807F80",
"u c #838283",
"i c #888688",
"p c #8B8A8B",
/* pixels */
"o+++++++++O+ooO++oooooOOO+OOOOOO+O++++++++++oO+++#++++#$$+####$#",
"+1:-:>:>:::;--&-;--------:-&&--=%&&-->>>>>::-------*-;--::::---&",
"#2>>11122,111,::,>1111,,11>>>>>>=>:>1<1111>2<1>>>>,>>1,>1,>>-;:-",
"#1>>::11,1,>>>::>:-,>,>>>:>::::-&>:::>>::>>>>>>>:>>1<>,>:>>>:;:&",
"+>:::,1,>><>>>>::;:>1>>>>>-------:>::::>:>>><>>>>>:1:>>:>1>>:--&",
"+:>::>>><>><1,>>;::>:>:-::-=----;;;:-;;::::>>>>:>>>>>>>::>>:::-#",
"+>1>,,1111112211>:::>1:::>:--:>::>>>>>>>><<<132111223211>11>>>-$",
"-790qqweyyrewe097334467777877euqrurrupuueeryyrppuuuuew79w0q85783",
":9000eryrrrreq093334779qwww0qrw0uuuruurw8weeewupprur0wrrewq009w>",
"10e90wre790ere7w775790eeeerrreweuppreeerr0wuu8weeee0eutteeeq0qr4",
"2we700w7399qw03e827590weweeeeeruuppreutre0epueerurwrtrpierre9ww0",
"10e07497113792493177779700weweereupwweeruuuutr87rw870rturuyywq69",
"-44513641124<353134114437457779875344578999532>2332137788q99773:",
".&;:>1>>>>>>>>>:::>,;>::->:>>>>>>:-->>>,>1::;--*----;>>>>>>:>:=+",
"%33233>>1137977787,>11>1>1333454574252444548741:->3744432464343>",
"&2121<>>11,77477981,21<1>>44247644722,347757543,--14443537433731",
"O:::>>>>>;::,21>>,>>,>,>>;1>;::>:::;---;>>>:--&---=---:>,>;:,,-#",
"O:><::>11>:>:222,>,>,11323,:;:121:-:;;->>:1>---&*---*-::,>>>>:-$",
"O>1>-;>,>>::>122111>,>12>4,:>:>31>:;-::221>:;---&;--;:::->:>::*#",
"+><>-:1>-1:-:112122>,13>;21,>-:221>-;:>2>4>>:--*--:::---$>>>;;-$",
"+>>>::1>&1:->:>,123>122:*21>:;;>>1,-;->1-2>>;----;>>;---#11>:;-&",
"+;>>>>1>&1>;:;:1<1311>2>-21>:>,21>,->;>,-2<>--*-*->>;->-&11>>>-&",
"O-,:>:,>&,,>;---12111>>>-31>>:122>>:>>:1&1>----*->,:----%1>>>>:&",
"o->:1>,>&>,>;--;31<><>>--31::>:121>>>>:1&,>:--&--:>;----%21>>>-@",
"O:::111>=2>,1:-:>11:>>1:&2>--:>,331>1<<>&>>>:-&-:;:,----%11>>>-+",
"O>>:,12>-31,12,:>321>:1-*31>>;>27742621>*>-::-->>:>>-;;-&>11,>-#",
"+,>:>121;31>>,,>>2342,2>&71:>;:>17726311-,;:,;-;>>>>>;,:&1>>,>:$",
"@>:;<>41-42:,>>1:333327>-41>>:;::47>3631&,::>:-;>>>:>>2>&>>>11>&",
"+1>:1241;42:>:;>:122434,&62-::--;,424331$>>->>-;>:>::33-&:,122,&",
"+>>><271;62>>>>,::>1224:&62>::;;>,444111&,>;;:-:;:;;>>1>&,:>>>:$",
"+>>13472:72::>>>>>>1213:&6211>1125734311&>,>>>-->>:,1:2>&>>,>:-#",
"+>112493:42>;>1>11>21<2-%3122243357333>1&-11>>;;>>,>,:2,$>>::--+",
"+1123373:622>,1<1:3,>,4:&312342244312213*;:1>->>1>>>>:1>#11>;>>&",
"+<223372-643211<322>124>&623443243224223*>>>>>,1,>:>>>>-#1>1::;&",
"+<233361-43311212>2:>23>-732332233212234*>>;>>,><1>:>>:*$,:>>:-&",
"+1333241-442113<111>>23:-732231233211,37->>:>>1,2,>>>::-+:,>>>-&",
"+1332361:522111<11,1<22>-742133,21111>14>,>:>>1>>>,>>>>;#,>>>:*#",
"+132226<-4232212,1,1<23<-42233222>111>:1:21>>>111::,1>:-@1>1>>-@",
"+>232231-4122221>1,>>24>:421232231222>,2-134411>1>-:>:,-#,,,>:*+",
"O,332441-3221111>22>1372:32333214332>>13-113431>1>:11>2-+,,>,>*@",
"o<321361>422121,>22-:142:21233123211<>23-1112,>,1>:>>:>-@>::1>&+",
"X-2>136>>312>12>-11>::>;$<>13421211>>>11&>::1:;:>>::>:>&#2--:1-O",
"o->1>12:-1,>>,3:-:-:--;-@:::>1>,1>1>:>11&,>>1:;-2>::>>-&@---:>&O",
"o->>:1:;-::>:>:-&=-::-&-$---,:-*&-:-;:>1&::>1>--1:,>>:-&$=&%--%O",
".--->>::&---*-&-&&---$%#&;&--=$$&--&-;:2&::->,-----;--&$$$$$&&&O",
".*&&;->-$--&--&*&&&-$+#O+&$&-&$$&&&&&->1;>-->--&&-----&++#+%&-&o",
".##$#&-&-&&-&&$&-&&&&+Oo+#&*--$$&$#-:,,------&>&&&-----$#++#&&&O",
".+##+$$&&&->-&&----&&#OOO+&*-::;-%&:23>--&--&-:-*-----&%#++#$=&+",
".##@$$&=&&--&#@#&$@+&$++O+&--&&&$O#&-4>--&-&$&&&&&&&--&@@$$##&=#",
"o&*&&&&:<>:----&---&*-&&&&:<:>--&$&&;1>:----&=&=*---;-&---&-&-&&",
"O-;--=*-<123211>1111>1<::>13431>>-1>>1>1,>1>>>:>,,:>1>-&->1<>>:-",
"X--&&$$&:->><:::-:>---:-->:>>>>:-=&;:--:--:-:---;>:->>:-*->:---&",
"O->-;;-;:1123>>>:>:-:>>>>>,11>>>>--:>:>>:>:::-->:>>1221:>>>>;>>-",
"+11:>::>-:2211>>--:*->><111112>><>1>>>>>::;;--->:>::<1>>>>>>><>-",
"+>>--:---->>:>:-&#$++$&-:>:::>:>;::----&&&&$$$%$------;--->:::;&",
"O:>-;:;---:>>:-&@++ooo%=::>::>>>:>>:;;&&&$#+++###&*--::--;>>:>:&",
"+::----=-->:--&+O%%+#O@%&*-=&=-------*$@@+X@%+&%#&=-::---------&",
"O%&$##$##$&%#$+O+=&@&OooO@+#@#$##@+$#+OOOoo%%#-&+++@@#@++@+@$@++",
"o$$##+#$%#&#+#@+-:$+#+o@&&-&&----&**-&&$###%%-::#+@##@+##+#$%@+@",
"o@o+&@.+&$&@#$#%:=o@&&%=::::>>>>;>:>->:::&=&&%&-%#$#%@@%&++&%++#",
"O#+@+++###&&%=#&:%o&:---:>:>>>>>>>:--:;---:::=#=#@####@##@+$@@@#",
"O&=%.O&&o+&&-=#&>&X&:--->>>>>>>>>::-;-:;-->::=#=%$&&&%%X+&&+o%&&",
"+-:>---;&-;-:;&#-&o+------;:-:;:-------;--:::&%=%&:----#&---=-:-",
"$&$&&&&&&$&#&$+o+O. X+OO+O++OO++++O+OO++O+@+#+o+O+##%#@#$&$%###@"
};
