/* XPM */
static char *imgonline_com_ua_Resize_Noezu2K7N7ew6SGe[] = {
/* columns rows colors chars-per-pixel */
"64 64 95 2 ",
"   c #1C1712",
".  c #1F1912",
"X  c #271F0E",
"o  c #221C14",
"O  c #291F13",
"+  c #241F1A",
"@  c #2C230F",
"#  c #2C2314",
"$  c #2D2816",
"%  c #26221C",
"&  c #2C251B",
"*  c #2C2B1B",
"=  c #332515",
"-  c #3A2716",
";  c #342916",
":  c #3A2A17",
">  c #33261A",
",  c #3A2718",
"<  c #352A1B",
"1  c #3C2C1B",
"2  c #34301C",
"3  c #3D311E",
"4  c #2C2721",
"5  c #2C2A23",
"6  c #2E2E2A",
"7  c #342C23",
"8  c #3B2E22",
"9  c #332E2A",
"0  c #343326",
"q  c #3D3124",
"w  c #353924",
"e  c #3C3824",
"r  c #35332C",
"t  c #3C332B",
"y  c #323829",
"u  c #3D3E2D",
"i  c #363330",
"p  c #3C3733",
"a  c #3C3933",
"s  c #3E3C3A",
"d  c #422E1D",
"f  c #45311E",
"g  c #4A351E",
"h  c #4E381E",
"j  c #52351C",
"k  c #523A1F",
"l  c #412F21",
"z  c #443323",
"x  c #4A3623",
"c  c #453B26",
"v  c #4D3924",
"b  c #44362A",
"n  c #493728",
"m  c #45392C",
"M  c #4D3A2B",
"N  c #533C24",
"B  c #593F23",
"V  c #523E2C",
"C  c #583F28",
"Z  c #453C33",
"A  c #4C3D31",
"S  c #453E3B",
"D  c #493F38",
"F  c #513F30",
"G  c #3E422D",
"H  c #4D412E",
"J  c #40492F",
"K  c #564027",
"L  c #5B4125",
"P  c #55412D",
"I  c #5B432B",
"U  c #5F482C",
"Y  c #4E4133",
"T  c #454834",
"R  c #4D423A",
"E  c #544232",
"W  c #5A4633",
"Q  c #564A36",
"!  c #5C4935",
"~  c #524439",
"^  c #594738",
"/  c #554A3A",
"(  c #5C4B39",
")  c #5A503B",
"_  c #624426",
"`  c #62462A",
"'  c #64492E",
"]  c #694A2D",
"[  c #604730",
"{  c #634930",
"}  c #6A4E32",
"|  c #624D3A",
" . c #64513D",
".. c #504C46",
"X. c #5E5540",
/* pixels */
"z z v M v : v N N h N L K  . .' L K E N M M N P M M x x v I I W E c o b q n q t 9 r t r 5 & ; ; ; < ; $ 5 q < w e ; < 7 t 3 3 2 ",
"f f f M m > z v N N v v M | W M v _ ` V z x v M M M d q z x v N v f o 7 r b 8 q 8 8 9 s 9 & * r 6 0 5 4 5 7 * & 7 5 r 7 c : ; ; ",
": 3 1 H b < z N N N b z M  .M z v h L N g x v N v M z f f z x K U g X 7 m p b b t n n ^ Y M ~ Y R H M Y W W ^ F H E E E W 3 2 @ ",
"f : : M c = g v v v v v n K z b v v K m v z v N M V x M N v b K K q   5 i 6 q q D P W ~ R E E E A A Y P ! | | | W V Y V ! c ; @ ",
"; : ; 1 c : b N x x M K P x x x v v m z x x V V N E V V K N M N N 0 5 p 9 9 7 t / E E F ^ F F F A M V F F C M F E M E W ( $ @ # ",
": < 8 1 3 1 1 ; < r b 1 0 & v K N V N N g n v b M V V V I I P M P m 6 6 s p 7 a n F M ~ ^ C F V V M M F E F F ! ^ V E ( P # # : ",
"v v m V K N N z x b P W n q d B L M N v h z m T Z M V x V W ^ M P q o b t r 8 p A n n F ~ F W V M A M M W | ^ | E M E F V % > V ",
"z v v v V v z z v K W { E z - x v z N v z x M M n v N x M N N E K 1 o % O + . O n v A F F R ..~ ~ R A V n W | | P M M V E & ; h ",
"z N x x x x x z V C N W ! t 8 x d g N z x x K E M V V V V x x V M z 7 r 9 1 : > n M n M F F ..~ ~ D F F n n ^ ( P V C F F & > N ",
"x v x x f x v V F C x E | t b x f N N z v v P ^ N M M V M N N I M x M ^ E V V 8 M A V E F A D F D F F M V V V V V V E F n & > g ",
"v N x K N v N A A Z z C  .a m v V N z n v M E P E x z K k N W W x x M I E E v 9 S D M | ..D D A V C W F v V F F V V A N M % # f ",
"v g x C ^ C C V F V z I ( u z v x V x n M x M V V M n M v M N W x x n M F F A 9 t E C ( ..A v v M F F F n n n F F V A Z b % : L ",
"N x x N ` I ^ V M N f z t 0 z N N x x V v n M V x x V V n m n M d 1 l M C E n < M C M F ..! A b F F E ^ v n F | ^ V E P Z 4 q P ",
"k v M P C N V K N L x 1 r Y z x v x v N M V N l n x N x v n n n d l n b D n x 8 Z E F V C | F V E M C ~ A M F [ W F P n b < : v ",
"N z v M x g x C N L x > r M x x x z 8 z v n n z n A x > 8 > 1 N N x l b n n n t b M A v M ( ! W A n V F V M V V M V M V b < 3 N ",
"g g k x f f g K K f z z > z b x F A x n M E F M n M t b v x l x V : > n b v n z n n M F F E | I n x F M V x M V E V b z # ; : x ",
"k g g g f f 3 g K h f f < M b M ! E A D F F A m z Z t d x v f x N x 7 v V x C V n v C ! W F ( V n 8 b v v M ^ E v 1 * 5 $ ; < f ",
"h f N h d f z g v v v g 7 ! F Z ^ W X.( ~ n b A S Z d d n n d z z l 7 x v x N x l b Z F ! A V n l x F F M n z > @ # $ $ # # ; f ",
"g g v v f g v K v K N g < M F C M W | ( F v x n A Y m q m z l V A l 1 l v v N v d O + < x z n x d + O O O + > < # # % # # % ; N ",
"v 1 g h f g v N V K N h > V M V x ^ W C v F n M M E m z x x N N F V C V A V F C V l x x x x x N x 1 1 1 1 < 1 8 * 7 < f x # 1 K ",
"g x f v h h g v N N h x 7 M E E V V F F F D Z F V E Y m x N K K } ] _ v n x v x F l V v v B g N d d 1 - 1 d l 9 7 1 1 1 z O : V ",
"I v f h v v v v v N N x < x f f l b n n n t b F V W V z g L L _ ] } ` ' V f z d l B C C K L N N > , d d d n l x M f 8 9 8 O : v ",
"U N g k g x P M m N M n t : f V C C C [ | F M ~ ~ V v x v L _ N N ` ' C { V f f = z F C P V v f d d l l d 8 n n n z 8 l q . = f ",
"L L K g v M N Y P v N z > d L K V ` C I W F l l ( N V g N B N g N C F ^ C x g f = v C C v g f 1 M d d l 1 1 x V v m l z 1 o - g ",
"N B k g v E N K V x h v > g W ] ` C C x v I 1 = x x x N k B k N N V F F M l d d : N C C x x k d d f z 8 8 z n m z b z 8 8   > x ",
"g B N k x N N N v v V x < v | I N B x d d B d = x x V N N N k k v x C l d d l d > f _ N x x x : 1 8 7 9 q 9 8 z < 7 7 8 , . < K ",
": z q > > 7 t 1 < 1 3 q & 1 x x V n 8 9 < z = O j M M x x f v v d f N N x x x x # : v N V N k : z 8 z 8 b 9 t M 8 u t T >   O = ",
"1 7 q < < t 7 < > < 3 z z z z M V b 9 Z 8 8 > < b x z l f M M x f v v V C x f N = d f x g K K x x d l x x j : r z Q M / 1 8 < 8 ",
"E V E ! V F 7 x x n x x l z 7 8 x z 7 9 7 t 9 9 7 z v f v m F M N b p b N x x C > d v N g N _ v V x N N v I : t E P U M M A P P ",
"M V M C V M > n d l V F M M t n c 9 8 q 8 n Z i & z P v x v x V K x x N C N N L g x N x N U L h B L K k V C E V V V E M V V E V ",
"P V M W C M 4 b n n v n M M V V 1 n l M V F A t q x F E v b z v M M M N j f l g N L U N L L L v j B k B N K P ! ^ V V E n E ! W ",
"P E E W E M 8 n b v n v m n n n z n n E M n n 8 V ! ! V v x f v M v v f x d d f N _ ` L N K k k k N k K c m g m 1 z E Q n b P W ",
"V F V W ( F i b z l l V F n l n M A n A m l t 9 M | ! n f z v v x x f f z d x x C N C C B k j f n c g f t M b t z z M E F A V V ",
"V F V M W n 4 v d l z n x n n A F n n Z p b q r Y ( W b d x z z d x x g B d d x f x z N N N L N v v V v n n b 7 8 8 b V n v V F ",
"n A A A A < > z l l n z z l b b W F b n b b 8 z n v M m f d 1 1 > d x B x x f f : x I g v v _ ] v x W I x l d l n x M F M v V V ",
"b V n n A > = d z V n x n n l j [ F t z b n z l b z Y M > O % 5 + < x v d l d d = d C g f f v v f x L x x g d v ! ^ ~ V V V F n ",
"8 8 q 9 l > = n x M j n n x M M F n 8 d n n z 8 Z X.) P M b % < : < g j d : 1 d : : d g d d f f 1 : 1 - - = - f x V V V n M n n ",
"7 , 1 8 l = > x M n x z x x M V n n l l n z z d q ! | P v H : d x h _ k f g g g g g _ B d g N K x d d - - d d j d l v v z 8 > z ",
"x z 8 d z > > x n n l l x V V M n V x x x n b b z E E V d M f d x N L B N g f g f f _ B d d f g g f f , d f d k ` C x f l = l v ",
"x d d x j l > M x n l n V F C x v v V l n M A n z A C M d g g d N U L N v g g N v g h j g d d d d f B K g d d g ` ` C v f 1 1 l ",
"x l g N x 1 > l x n z n C M n n F F z l l t n n 3 E E P x v g g x I N g g g g N N v x v g g d k g N L I x d 1 d d _ ] N f d - x ",
"x d g z v z 7 x l z l z M F x x x n l z l 8 n l b ~ M P N v f f f x N x g k K ' K L V v g f f h N v K N f d 1 f f N B g g : , x ",
"x z l f f m t x l x v V F F V M x z l l 8 x F l m & : : f x x g g g N x g L K W W ^ M f g f g g f f g d d l b f f x f f d O < x ",
"x n n d d 1 , x n n V F V F C A A l n b z n M F A 1 z f N N g f g g g g N U K I ! I v g g g f g f 1 d d f f f f f f g f d o : v ",
"M v x V E E Y H v F n F F F F F A l M x n M M V b q c 1 g _ h x f v g g K W U ` L h v g v z g g h g 1 f f f x f f h N N B : x I ",
"x z x P E E m c v x A E F F F V M z x n A M M x 3 c v 1 g N N x g g h g M v v I v k h v g h d g g f f k N K N h f N L P ' V x K ",
"k f b E E P V x F D D F F F M V V x M V x n 8 8 & 7 1 = g K K M x v f v f f v H _ k h v f g g g g v k L K N N C N C K V L v f N ",
"x f n V F F M V ( F F M M C F M M n M M j x l l f f q 8 f K K K g f n m f f v v L N v h g f h k h v N K K v N N N L ` P K v # v ",
"d 1 F V F C ^ W n F F F F W ^ | F C ^ W B v C C C N C x : v V N f v f g f f v v K U W P x h L N N f v K K N N N N K B N N v & z ",
": & F F F V ^ [ n F F F [ [ ^ V V [ ! [ ^ C N N N N C v : M v K v f f f g v g x K ' ( ^ L U L K v N N V N N x C B N C N N v G 0 ",
"v < M V F V C V F F F V [ F C M M F W W ` C C C N N L f g N L ` L g f g f f f v K W I K U _ _ L N N N V k _ N N C N N g v z T G ",
"c < n V n M F F F v F A F F F F ^ ^ W F V v C C x h B g f _ L ` _ K k L N K K K _ K N v v L _ K N V N L B L x N v k k g c M y y ",
"m 2 M E V M V V F v A F W F W ^ ^ F [ ^ M x x x N x g f f k L K L _ _ L I L K L _ v k v L N N k N V N K N N g g g v v x N v 0 w ",
"H * M E V M V F V V F C C F F ^ | C F ~ C N x z x f k d f N K L k L L _ L K K N L N h K L g g v C N f v N v z h v v N v N 3 w v ",
"2 ; M P V V V M V v F W F v F [ F F F F v l d d d d d : f N k k L k L L L I N M z g g P K N N N K N v v N v f f g v v c z 1 y m ",
"z < m E M M M V F n V W x x V W F V A 4 > > = = < = : ; f v v K h k L L L K N g g f z K N v k k N v h N v v g f v v g f v 8 y r ",
"< > n M M A V V n M n z x j v F F V A n x C B B L N V v g B N N h K N L Q K N g f g x N v d g k k x g x N v g z g v f v x < 9 r ",
"; O n F F F E x l n f z x f M [ W F F x x x N x k v K k d v x v v K N V ! N v x d z f x n z d d x z x x f h v f x v f z f ; * < ",
"$ # n M m 1 b z z z x x x z n F F W I x x v z x h v N g d k g g v K K v E N v V N x x z x x d d f d f x f v x z v z f f M > $ $ ",
": % n F m 8 M z x x g x V x x F V F F x x x x v v x x g d g v N K g v c x f v z M n x v v g d d f f f v v x x x v v k g N 1 2 2 ",
"3 * n M A z v x n n x z x l l z b b n , d < d < 1 : 1 1 d d g f z d d 1 z 1 1 q z z n n f g g : 1 f x x z x v x f f g g N 8 3 e ",
"2 * c t n d N x n C v x d l x f z z l z x d z f g z z h g x v B x d = > z z l q z 1 8 z f f ; @ # : f v v z z v x g g h z < e 1 ",
"$ $ z v n z x v l n x x x x g x V M M v x M V x v M n f x f x C N f + 1 x x 8 b x z z M c ; $ ; ; ; < : 3 < < f f f 3 : f 0 v u ",
"* * 0 < : 1 x N M d x v C V B V P C b v v N n M z z f v N x d N B b % 1 x V l z v x x z 3 : ; ; ; ; ; < * * 2 < $ $ * * 1 v P m "
};
